<svg xmlns="http://www.w3.org/2000/svg" viewBox="0 0 1920 800" preserveAspectRatio="xMidYMid meet">
  <!-- Background -->
  <rect width="100%" height="100%" fill="transparent"></rect>

  <!-- Left Vertical Border -->
  <g transform="translate(40, 0)">
    <!-- Repeated pattern of teardrops and dots -->
    <g fill="#c49a6c">
      <!-- Repeat vertically -->
      <g id="pattern">
        <path d="M0,0 C5,-15 15,-15 20,0 C15,15 5,15 0,0 Z"></path>
        <circle cx="10" cy="25" r="5"></circle>
      </g>
      <!-- Manually repeat down the left side -->
      <use href="#pattern" y="0"></use>
      <use href="#pattern" y="60"></use>
      <use href="#pattern" y="120"></use>
      <use href="#pattern" y="180"></use>
      <use href="#pattern" y="240"></use>
      <use href="#pattern" y="300"></use>
      <use href="#pattern" y="360"></use>
      <use href="#pattern" y="420"></use>
      <use href="#pattern" y="480"></use>
      <use href="#pattern" y="540"></use>
      <use href="#pattern" y="600"></use>
      <use href="#pattern" y="660"></use>
      <use href="#pattern" y="720"></use>
    </g>
  </g>

  <!-- Mandala (simplified clean vector) -->
  <g transform="translate(1420, 400)" fill="none" stroke="#c49a6c" stroke-width="2">
    <circle r="180" stroke-width="3"></circle>
    <circle r="160"></circle>
    <circle r="140"></circle>

    <!-- Petals -->
    <g id="petal">
      <path d="M0,-180 Q40,-120 0,-60 Q-40,-120 0,-180 Z" fill="#c49a6c"></path>
    </g>
    <use href="#petal" transform="rotate(30)"></use>
    <use href="#petal" transform="rotate(60)"></use>
    <use href="#petal" transform="rotate(90)"></use>
    <use href="#petal" transform="rotate(120)"></use>
    <use href="#petal" transform="rotate(150)"></use>
    <use href="#petal" transform="rotate(180)"></use>
    <use href="#petal" transform="rotate(210)"></use>
    <use href="#petal" transform="rotate(240)"></use>
    <use href="#petal" transform="rotate(270)"></use>
    <use href="#petal" transform="rotate(300)"></use>
    <use href="#petal" transform="rotate(330)"></use>

    <!-- Decorative circles -->
    <circle r="100"></circle>
    <circle r="60"></circle>
    <circle r="20" fill="#c49a6c"></circle>
  </g>
</svg>
